<?xml version="1.0" encoding="UTF-8" standalone="no"?>
<svg
   xmlns:dc="http://purl.org/dc/elements/1.1/"
   xmlns:cc="http://creativecommons.org/ns#"
   xmlns:rdf="http://www.w3.org/1999/02/22-rdf-syntax-ns#"
   xmlns:svg="http://www.w3.org/2000/svg"
   xmlns="http://www.w3.org/2000/svg"
   xmlns:sodipodi="http://sodipodi.sourceforge.net/DTD/sodipodi-0.dtd"
   xmlns:inkscape="http://www.inkscape.org/namespaces/inkscape"
   version="1.1"
   id="svg2"
   xml:space="preserve"
   width="226.77333"
   height="136.06667"
   viewBox="0 0 226.77333 136.06667"
   sodipodi:docname="Erasmus signature_02_RGB_black.eps"><metadata
     id="metadata8"><rdf:RDF><cc:Work
         rdf:about=""><dc:format>image/svg+xml</dc:format><dc:type
           rdf:resource="http://purl.org/dc/dcmitype/StillImage" /></cc:Work></rdf:RDF></metadata><defs
     id="defs6" /><sodipodi:namedview
     pagecolor="#ffffff"
     bordercolor="#666666"
     borderopacity="1"
     objecttolerance="10"
     gridtolerance="10"
     guidetolerance="10"
     inkscape:pageopacity="0"
     inkscape:pageshadow="2"
     inkscape:window-width="640"
     inkscape:window-height="480"
     id="namedview4" /><g
     id="g10"
     inkscape:groupmode="layer"
     inkscape:label="ink_ext_XXXXXX"
     transform="matrix(1.3333333,0,0,-1.3333333,0,136.06667)"><g
       id="g12"
       transform="scale(0.1)"><path
         d="m 926.809,358.406 c -2.621,0 -3.235,1.004 -3.235,2.852 0,7.246 12.117,17.031 18.223,17.031 2.121,0 3.672,-0.976 3.672,-2.629 0,-2.695 -13.028,-17.254 -18.66,-17.254 z m 134.671,80.274 c -17.57,-48.84 -67.046,-80.617 -77.664,-80.617 -19.336,0 -1.66,38.105 -28.621,38.105 -18.164,0 -48.293,-19.344 -48.293,-39.695 0,-9.289 6.946,-18.653 21.653,-18.653 18.308,0 14.492,23.34 25.437,23.34 9.571,0 6.574,-17.746 29.621,-17.746 12.715,0 20.657,12.695 27.337,12.695 1.79,0 4.35,-1.054 4.35,-6.64 0,-9.227 -10.67,-38.223 -10.66,-45.781 0,-4.981 5.35,-8.497 9.33,-8.497 4.02,0 7.16,1.758 8.04,4.981 2.65,9.758 5.15,18.75 7.71,27.031 39.26,127.363 74.63,88.027 74.63,115.586 0,9.844 -8.09,13.391 -17.93,13.391 -10.96,0 -21.51,-8.371 -24.94,-17.5"
         style="fill:#100f0d;fill-opacity:1;fill-rule:evenodd;stroke:none"
         id="path14" /><path
         d="m 822.117,397.379 c -3.64,-2.598 3.071,-14.734 7.707,-12.606 4.258,1.961 20.188,11.133 28.789,11.133 4.114,0 6.035,-1.914 6.035,-4.347 0,-8.914 -48.21,-33.477 -48.21,-55.829 0,-5.363 4.91,-13.281 20.574,-13.281 24.551,0 53.73,11.446 53.73,21.074 0,1.61 -1.965,3.594 -4.363,3.594 -3.82,0 -28.313,-10.117 -41.469,-10.117 -4.234,0 -7.605,1.727 -7.605,4.648 0,13.594 46.047,34.707 46.047,50.704 0,14.187 -13.047,18.359 -20.903,18.359 -18.308,0 -36.797,-10.813 -40.332,-13.332"
         style="fill:#100f0d;fill-opacity:1;fill-rule:evenodd;stroke:none"
         id="path16" /><path
         d="m 1303.13,380.086 c -3.84,-14.531 -31.21,-18.664 -46.15,-18.664 -14.95,0 -14.75,4.152 -17.94,19.355 -3,14.375 -9.01,17.95 -16.98,17.95 -5.87,0 -11.75,-5.633 -18.33,-11.727 -11.4,-10.566 -22.55,-24.922 -28.61,-24.922 -5.15,0 -9.12,5.996 -9.12,12.02 0,5.488 4.29,7.765 4.29,13.886 0,4.27 -2.36,12.649 -8.65,12.649 -9.5,0 -24.46,-16.543 -27.1,-19.18 -7.78,-7.785 -18.59,-23.273 -29.74,-23.273 -16.63,0 -1.47,25.996 -21.39,25.996 -10.34,0 -14.55,-9.492 -14.55,-14.063 0,-7.871 5.1,-12.156 10.72,-18.203 6.34,-6.824 11.19,-12.703 19.85,-12.703 25.91,0 31.69,28.438 45.05,28.438 4.43,0 6.46,-4.043 6.93,-7.891 1.18,-9.68 11.55,-14.258 23.55,-14.258 22.73,0 23.2,20.117 37.27,20.117 19.14,0 15.61,-22.629 36.89,-22.629 8.48,0 9.84,1.426 22.68,3.118 15.59,2.05 28.7,2.996 35.8,7.246 16,9.59 7.61,38.007 24.27,38.007 5.69,0 10.02,-3.847 10.02,-13.234 0,-11.629 -4.08,-38.699 -61.93,-68.359 -5.93,-3.164 -10.02,-7.039 -10.02,-10.43 0,-3.516 3.6,-5.477 7,-5.477 13.04,0 83.69,38.165 83.69,81.649 0,25.031 -10.95,32.668 -26.96,32.668 -25.57,0 -27.03,-14.875 -30.54,-28.086"
         style="fill:#100f0d;fill-opacity:1;fill-rule:evenodd;stroke:none"
         id="path18" /><path
         d="m 805.203,547.098 c -43.34,0 -123.515,-28.567 -208.238,-150.118 -57.805,-16.367 -256.809,-77.929 -256.809,-123.613 0,-9.347 14.082,-22.551 34.387,-22.551 9.695,0 17.098,3.645 17.098,9.063 0,10.566 -25.286,10 -25.286,17.531 0,20.418 116.133,64.598 216.34,94.578 -38.547,-73.535 -17.09,-165.047 73.828,-165.047 43.172,0 86.231,26.387 112.579,42.403 5.109,3.105 1.211,10.867 -4.786,7.761 -27.136,-14.05 -62.187,-31.796 -99.238,-31.796 -97.683,0 -86.609,97.062 -53.43,155.109 28.926,8.035 72.524,18.562 118.207,18.562 33.934,0 42.872,-12.871 49.461,-15.097 6.614,-2.137 11.075,3.176 6.856,8.957 -6.738,9.238 -19.246,25.027 -64.395,25.027 -19.406,0.215 -58.047,-4.695 -95.714,-13.387 41.476,55.77 109.14,124.61 182.394,124.61 20.813,0 48.731,-7.344 48.731,2.625 0,13.273 -40.665,15.39 -51.985,15.383"
         style="fill:#100f0d;fill-opacity:1;fill-rule:evenodd;stroke:none"
         id="path20" /></g></g></svg>
