<?xml version="1.0" standalone="no"?>
<!DOCTYPE svg PUBLIC "-//W3C//DTD SVG 20010904//EN"
 "http://www.w3.org/TR/2001/REC-SVG-20010904/DTD/svg10.dtd">
<svg version="1.0" xmlns="http://www.w3.org/2000/svg"
 width="653.000000pt" height="653.000000pt" viewBox="0 0 653.000000 653.000000"
 preserveAspectRatio="xMidYMid meet">

<g transform="translate(0.000000,653.000000) scale(0.100000,-0.100000)"
fill="#000000" stroke="none">
<path d="M0 3265 l0 -3265 3265 0 3265 0 0 3265 0 3265 -3265 0 -3265 0 0
-3265z m1740 375 c11 -11 20 -26 20 -34 0 -7 13 -19 30 -26 68 -28 120 -116
120 -201 0 -20 7 -42 15 -49 40 -33 2 -100 -60 -105 -22 -1 -56 -11 -75 -21
-49 -26 -155 -26 -195 0 -17 11 -48 21 -70 22 -61 3 -100 70 -60 104 9 8 15
30 15 57 0 79 54 166 121 194 17 6 29 19 29 30 0 22 37 49 67 49 13 0 32 -9
43 -20z m577 1 c23 -11 48 -29 55 -40 7 -12 18 -21 25 -21 9 0 13 -15 13 -45
l0 -45 -48 0 c-44 0 -49 2 -59 30 -13 35 -51 55 -88 46 -30 -8 -43 -32 -28
-55 5 -9 48 -29 94 -46 67 -24 88 -37 106 -64 64 -94 -18 -221 -141 -221 -52
1 -120 31 -141 64 -10 14 -24 26 -31 26 -10 0 -14 13 -14 40 l0 40 54 0 c48 0
55 -3 58 -21 2 -12 15 -31 29 -42 21 -15 33 -17 55 -10 15 5 32 17 38 26 18
29 -6 50 -82 75 -114 37 -160 102 -133 185 28 85 141 122 238 78z m1853 -176
l0 -195 25 0 c23 0 25 -4 25 -40 l0 -40 -95 0 -95 0 0 40 c0 36 3 40 25 40
l25 0 0 155 0 155 -25 0 c-22 0 -25 4 -25 40 l0 40 70 0 70 0 0 -195z m620
117 l0 -77 63 0 c74 0 116 -24 147 -85 26 -50 25 -93 -1 -146 -33 -69 -66 -83
-192 -83 l-107 0 -2 192 c-3 191 -3 192 -25 195 -19 3 -23 10 -23 43 l0 39 70
0 70 0 0 -78z m-2150 23 c0 -33 -4 -45 -15 -45 -20 0 -19 -6 11 -58 l26 -45
29 47 c33 53 34 56 14 56 -11 0 -15 12 -15 45 l0 45 95 0 95 0 0 -45 c0 -36
-3 -45 -18 -45 -10 0 -44 -36 -85 -90 -64 -85 -67 -92 -67 -145 0 -54 0 -55
30 -55 28 0 30 -2 30 -40 l0 -40 -105 0 -105 0 0 40 c0 36 3 40 25 40 24 0 25
3 25 56 0 51 -4 61 -62 145 -48 68 -67 89 -85 89 -21 0 -23 5 -23 45 l0 45
100 0 100 0 0 -45z m520 -100 c51 -80 94 -145 96 -145 2 0 4 45 4 100 0 93 -1
100 -20 100 -17 0 -20 7 -20 45 l0 45 90 0 90 0 0 -45 c0 -38 -3 -45 -20 -45
-19 0 -20 -7 -20 -185 l0 -185 -50 0 -51 0 -86 133 c-47 72 -89 136 -94 142
-5 5 -9 -34 -9 -93 0 -84 3 -102 15 -102 11 0 15 -11 15 -40 l0 -40 -85 0 -85
0 0 40 c0 33 3 40 20 40 19 0 20 7 20 145 0 138 -1 145 -20 145 -17 0 -20 7
-20 45 l0 45 69 0 69 0 92 -145z m588 125 c18 -11 46 -20 62 -20 29 0 30 -1
30 -50 l0 -50 -42 0 c-28 0 -49 7 -64 21 -27 26 -91 34 -124 17 -63 -34 -89
-130 -54 -204 33 -69 123 -86 176 -34 16 17 35 30 42 30 28 0 76 -23 76 -36 0
-8 -19 -34 -43 -57 -142 -143 -369 -36 -368 173 0 99 45 174 126 211 55 25
140 25 183 -1z m766 -145 c33 -22 46 -64 46 -146 0 -62 2 -69 20 -69 17 0 20
-7 20 -41 l0 -40 -77 1 c-43 1 -94 -1 -113 -5 -108 -21 -179 95 -104 166 22
21 36 24 95 24 73 0 84 9 52 40 -12 13 -28 16 -62 12 -25 -2 -53 -8 -62 -11
-11 -5 -19 1 -27 19 -15 34 -16 32 11 46 58 32 156 34 201 4z m-839 -505 c3
-5 1 -10 -4 -10 -6 0 -11 5 -11 10 0 6 2 10 4 10 3 0 8 -4 11 -10z m1555 -53
l0 -63 -31 2 c-46 3 -66 26 -50 60 9 22 17 25 41 22 26 -4 30 -1 30 19 0 13 2
23 5 23 3 0 5 -28 5 -63z m-2700 35 c0 -13 8 -18 28 -17 25 0 27 -3 28 -45 l2
-45 -7 40 c-5 31 -10 40 -26 40 -15 0 -21 -8 -23 -32 -5 -54 -22 -37 -22 22 0
30 5 55 10 55 6 0 10 -8 10 -18z m226 3 c4 -8 1 -21 -5 -29 -8 -10 -8 -16 2
-25 8 -6 16 -8 19 -6 3 3 8 -3 11 -14 3 -14 0 -19 -12 -19 -9 0 -23 -2 -31 -6
-22 -9 -53 16 -44 37 8 23 23 22 17 -2 -6 -23 11 -35 32 -24 13 8 12 13 -10
33 -34 32 -33 70 2 70 7 0 16 -7 19 -15z m-947 -23 c-16 -6 -10 -62 7 -62 8 0
13 -4 9 -10 -12 -20 -35 3 -35 36 0 19 -5 34 -10 34 -7 0 -6 5 2 13 9 10 16
11 24 3 7 -6 8 -12 3 -14z m647 13 c9 -8 11 -15 5 -15 -15 0 -14 -57 2 -63 6
-2 9 -8 4 -13 -12 -13 -35 18 -37 51 -4 60 0 66 26 40z m2523 -13 c-16 -6 -10
-62 7 -62 8 0 13 -4 9 -10 -12 -20 -35 3 -35 36 0 19 -5 34 -10 34 -7 0 -6 5
2 13 9 10 16 11 24 3 7 -6 8 -12 3 -14z m-3661 1 c-35 -5 -36 -20 -3 -33 14
-5 25 -16 25 -24 0 -19 -35 -30 -57 -17 -15 9 -13 10 15 11 17 0 32 5 32 10 0
6 -8 10 -18 10 -24 0 -42 19 -35 36 3 8 18 13 37 13 30 -2 30 -2 4 -6z m134
-19 c11 -23 10 -29 -11 -45 -39 -31 -85 6 -61 50 16 31 57 28 72 -5z m113 16
c4 -7 -2 -9 -17 -5 -15 4 -29 1 -36 -8 -18 -22 -4 -47 27 -47 20 0 23 -2 11
-10 -10 -6 -22 -5 -35 4 -25 16 -31 42 -15 61 14 17 56 20 65 5z m52 -57 c-2
-16 -4 -5 -4 22 0 28 2 40 4 28 2 -13 2 -35 0 -50z m107 61 c9 -3 16 -15 16
-25 0 -14 -7 -19 -30 -19 -16 0 -30 -4 -30 -10 0 -5 15 -10 33 -10 27 -1 29
-2 14 -11 -14 -8 -24 -7 -43 5 -50 33 -16 92 40 70z m156 -26 c11 -32 12 -32
26 -14 7 11 14 26 14 33 0 7 4 13 9 13 10 0 -23 -84 -41 -107 -12 -15 -38 -17
-38 -3 0 5 6 7 14 4 25 -9 28 15 7 61 -11 25 -16 45 -11 45 4 0 13 -15 20 -32z
m211 2 c14 -38 24 -38 38 2 6 17 13 29 16 26 3 -3 -6 -30 -20 -61 -16 -37 -31
-57 -42 -57 -15 0 -15 1 2 13 18 14 18 21 -10 90 -4 9 -4 17 -1 17 4 0 12 -13
17 -30z m157 18 c34 -34 -6 -90 -48 -68 -35 19 -20 80 20 80 9 0 21 -5 28 -12z
m72 -24 c0 -31 3 -35 23 -32 16 2 24 12 28 38 6 34 6 33 8 -11 1 -45 1 -46
-30 -44 -17 1 -35 8 -40 16 -12 19 -11 69 1 69 6 0 10 -16 10 -36z m640 17
c13 -24 13 -61 1 -61 -6 0 -11 15 -13 33 -2 24 -8 32 -23 32 -16 0 -21 -9 -26
-40 l-6 -40 -2 45 c-1 44 0 46 29 48 20 2 32 -4 40 -17z m118 7 c23 -23 13
-38 -24 -38 -21 0 -33 -4 -29 -10 3 -5 18 -10 33 -10 23 -1 24 -2 10 -11 -27
-15 -58 6 -58 41 0 37 41 55 68 28z m90 -56 c19 -3 22 1 22 32 0 20 5 36 10
36 6 0 10 -17 10 -39 0 -33 -4 -39 -24 -43 -39 -8 -56 8 -55 50 l2 37 6 -35
c4 -26 12 -36 29 -38z m119 55 c-9 -7 -18 -28 -20 -47 -3 -31 -4 -30 -5 10 -2
40 1 46 19 47 19 2 19 0 6 -10z m107 7 c24 -9 21 -61 -4 -74 -27 -15 -60 4
-60 33 0 38 27 55 64 41z m93 -1 c-32 -5 -31 -26 1 -31 13 -2 22 -11 22 -22 0
-22 -26 -33 -48 -20 -14 8 -12 9 11 10 34 0 35 16 2 24 -43 11 -31 47 14 45
26 -2 25 -2 -2 -6z m128 -2 c3 -6 -7 -9 -22 -8 -24 2 -28 -2 -28 -23 0 -21 5
-25 28 -25 30 1 36 -9 11 -19 -26 -10 -54 12 -54 44 0 15 6 31 13 33 21 9 46
8 52 -2z m52 -58 c-2 -16 -4 -5 -4 22 0 28 2 40 4 28 2 -13 2 -35 0 -50z m123
48 c15 -29 13 -31 -26 -31 -21 0 -33 -4 -29 -10 3 -5 18 -10 33 -10 23 -1 24
-2 10 -11 -27 -15 -58 6 -58 41 0 41 50 57 70 21z m116 8 c16 -13 19 -84 4
-74 -5 3 -10 20 -10 36 0 17 -6 32 -15 36 -21 7 -27 0 -35 -44 l-8 -38 -1 45
c-1 42 1 46 25 48 15 1 33 -3 40 -9z m118 2 c4 -5 -2 -7 -12 -4 -23 6 -46 -21
-38 -43 4 -11 14 -15 31 -12 28 6 34 -6 9 -16 -39 -15 -73 41 -42 72 14 14 44
16 52 3z m116 -10 c15 -29 13 -31 -26 -31 -21 0 -33 -4 -29 -10 3 -5 18 -10
33 -10 23 -1 24 -2 10 -11 -27 -15 -58 6 -58 41 0 41 50 57 70 21z m175 9 c4
-7 -2 -9 -17 -5 -15 4 -29 1 -36 -8 -18 -22 -4 -47 27 -47 20 0 23 -2 11 -10
-10 -6 -22 -5 -35 4 -25 16 -31 42 -15 61 14 17 56 20 65 5z m99 4 c24 -9 21
-61 -4 -74 -27 -15 -60 4 -60 33 0 38 27 55 64 41z m132 -44 l2 -45 -7 40 c-5
31 -10 40 -26 40 -16 0 -21 -9 -26 -40 l-6 -40 -2 46 c-1 46 -1 46 32 45 31
-1 32 -2 33 -46z m130 0 c1 -40 1 -41 -3 -7 -7 65 -47 62 -63 -5 -8 -32 -8
-32 -9 13 l-1 46 38 -1 c37 -1 37 -1 38 -46z m108 44 c9 -3 16 -15 16 -25 0
-14 -7 -19 -30 -19 -16 0 -30 -4 -30 -10 0 -5 15 -10 33 -10 27 -1 29 -2 14
-11 -14 -8 -24 -7 -43 5 -50 33 -16 92 40 70z m120 -2 c2 -4 -8 -8 -22 -7 -22
0 -27 -4 -27 -25 0 -21 5 -25 28 -25 30 1 36 -9 11 -19 -39 -15 -73 41 -42 72
14 14 44 16 52 4z m194 -4 c23 -23 13 -38 -24 -38 -21 0 -33 -4 -29 -10 3 -5
18 -10 33 -10 23 -1 24 -2 10 -11 -25 -14 -58 6 -58 34 0 27 17 47 40 47 9 0
21 -5 28 -12z m-3118 -68 c0 -5 -4 -10 -10 -10 -5 0 -10 5 -10 10 0 6 5 10 10
10 6 0 10 -4 10 -10z"/>
<path d="M1668 3629 c-36 -21 -16 -79 27 -79 44 0 63 60 26 80 -24 12 -31 12
-53 -1z"/>
<path d="M1576 3538 c-43 -35 -75 -97 -76 -143 0 -26 5 -32 33 -40 41 -13 62
-52 47 -90 -9 -24 -7 -27 33 -45 55 -25 110 -25 163 1 40 19 42 22 33 46 -13
36 8 76 49 88 27 8 32 14 32 40 0 44 -39 114 -82 149 l-38 29 -23 -21 c-29
-28 -78 -29 -102 -2 -23 26 -24 26 -69 -12z"/>
<path d="M1487 3322 c-34 -37 -11 -76 40 -70 23 2 29 9 31 33 6 48 -40 71 -71
37z"/>
<path d="M1846 3327 c-12 -9 -17 -23 -14 -42 2 -24 8 -31 31 -33 52 -6 76 38
39 71 -22 20 -33 21 -56 4z"/>
<path d="M4812 3414 c-18 -12 -22 -25 -22 -69 0 -60 14 -75 68 -75 74 0 95
117 26 149 -33 15 -45 14 -72 -5z"/>
<path d="M4372 3308 c-16 -16 -15 -33 3 -48 12 -10 24 -10 55 -1 33 10 40 16
40 36 0 23 -4 25 -43 25 -24 0 -48 -5 -55 -12z"/>
<path d="M5167 2933 c-4 -3 -7 -17 -7 -30 0 -18 6 -23 24 -23 13 0 27 7 30 16
11 28 -27 57 -47 37z"/>
<path d="M2720 2955 c0 -8 7 -15 15 -15 8 0 15 7 15 15 0 8 -7 15 -15 15 -8 0
-15 -7 -15 -15z"/>
<path d="M1392 2923 c-13 -26 -4 -43 23 -43 13 0 25 6 28 13 6 17 -11 47 -28
47 -8 0 -18 -8 -23 -17z"/>
<path d="M1687 2934 c-14 -14 -6 -24 19 -24 16 0 24 5 22 13 -5 14 -31 21 -41
11z"/>
<path d="M2194 2926 c-10 -26 4 -48 28 -44 17 2 23 10 23 28 0 18 -6 26 -23
28 -13 2 -25 -3 -28 -12z"/>
<path d="M3027 2934 c-14 -14 -6 -24 19 -24 16 0 24 5 22 13 -5 14 -31 21 -41
11z"/>
<path d="M3350 2926 c-18 -22 -5 -48 22 -44 17 2 23 10 23 28 0 29 -26 38 -45
16z"/>
<path d="M3737 2934 c-14 -14 -6 -24 19 -24 16 0 24 5 22 13 -5 14 -31 21 -41
11z"/>
<path d="M4087 2934 c-14 -14 -6 -24 19 -24 16 0 24 5 22 13 -5 14 -31 21 -41
11z"/>
<path d="M4370 2926 c-18 -22 -5 -48 22 -44 17 2 23 10 23 28 0 29 -26 38 -45
16z"/>
<path d="M4747 2934 c-14 -14 -6 -24 19 -24 16 0 24 5 22 13 -5 14 -31 21 -41
11z"/>
<path d="M5047 2934 c-14 -14 -6 -24 19 -24 16 0 24 5 22 13 -5 14 -31 21 -41
11z"/>
</g>
</svg>
